<svg width="22px" height="22px" viewBox="0 0 22 22" xmlns="http://www.w3.org/2000/svg" xmlns:xlink="http://www.w3.org/1999/xlink">
    <g id="Page-1" stroke="none" stroke-width="1" fill="none" fill-rule="evenodd">
        <g id="Group-21">
            <rect id="Rectangle-Copy-6" fill="#FFFFFF" x="0" y="0" width="22" height="22" rx="2"></rect>
            <path d="M11.7899475,6.00115362 C12.206211,6.00281037 12.4404071,6.00647969 12.6543594,6.01358476 L12.8135564,6.01958 C12.8937855,6.02292197 12.9768569,6.02679712 13.0713043,6.03128051 C13.6025391,6.05470275 13.9658508,6.14060975 14.2841492,6.26367187 C14.6161804,6.38864137 14.9189148,6.5859375 15.1689301,6.83984375 C15.4248199,7.089859 15.6201324,7.39060975 15.7470856,7.72653199 C15.8701477,8.04299926 15.9560547,8.40821838 15.9794769,8.93945312 C15.9987658,9.37857414 16.0035151,9.57129688 16.0045906,10.3837865 L16.0046199,11.4323067 C16.0032577,12.4024284 15.9962526,12.5900601 15.9755859,13.0605469 C15.9521637,13.5917816 15.8661804,13.9550934 15.7431946,14.273468 C15.4834137,14.9453125 14.9521789,15.4765472 14.2802582,15.7363281 C13.9638672,15.8593903 13.5986481,15.9452972 13.0674133,15.9687195 C12.5969265,15.9894535 12.4092949,15.9964071 11.4391732,15.9977562 L10.5745569,15.9977562 C9.60442217,15.9964071 9.41673908,15.9894535 8.94631957,15.9687195 C8.41500855,15.9452972 8.05177307,15.8593903 7.73339844,15.7363281 C7.40136719,15.6113586 7.09863281,15.4140625 6.84861756,15.1601562 C6.59471131,14.910141 6.39749145,14.6093903 6.27053832,14.273468 C6.14747619,13.9570007 6.06149293,13.5917816 6.03807068,13.0605469 C6.02015955,12.6527916 6.01250983,12.4574921 6.00990159,11.7811479 L6.00992743,10.2188263 C6.01261965,9.5423981 6.02062629,9.34674162 6.04005432,8.93746949 C6.06347656,8.40623475 6.14938355,8.04299926 6.27244568,7.72462463 C6.39749145,7.39259338 6.59471131,7.089859 6.84861756,6.83984375 C7.09863281,6.58395387 7.39938355,6.38864137 7.73538207,6.26168824 C8.05177307,6.13870238 8.41699219,6.05271912 8.94822693,6.02929687 C9.35598216,6.01138575 9.55128173,6.00373603 10.2276259,6.00112778 Z M11.437798,6.90846606 L10.5881704,6.90846606 C9.95365762,6.9093742 9.66307164,6.91279026 9.40198143,6.9210902 L9.24635135,6.92667523 C9.16779061,6.92977979 9.08622472,6.93336666 8.99316406,6.9375 C8.50686645,6.95901488 8.24121094,7.04103088 8.06542969,7.10939025 C7.8486023,7.18942262 7.6532898,7.31637574 7.49124145,7.48239137 C7.32324219,7.64260863 7.19628906,7.8398285 7.11618043,8.05665588 C7.04782105,8.23243713 6.96580506,8.496109 6.94436645,8.98439025 C6.92363246,9.4479433 6.91667888,9.6271562 6.91532971,10.579303 L6.91532971,11.4284092 C6.91667888,12.3802309 6.92363246,12.5581647 6.94436645,13.023468 C6.96580506,13.5097656 7.04782105,13.7754211 7.11618043,13.9512024 C7.19628906,14.1679535 7.32324219,14.363266 7.48925781,14.5253906 C7.64939881,14.6914062 7.84669494,14.8183594 8.06344605,14.898468 C8.2392273,14.9668274 8.50289918,15.0488434 8.99118043,15.070282 C9.42389275,15.0896337 9.60886148,15.0969812 10.4057322,15.0989717 L11.6156297,15.0989717 C12.4120745,15.0969812 12.5959751,15.0896337 13.0302582,15.070282 C13.5166321,15.0488434 13.7822113,14.9668274 13.9579926,14.898468 C14.3935547,14.7304687 14.7392426,14.3847809 14.9072418,13.9492187 C14.9756012,13.7734375 15.0576172,13.5097656 15.0791321,13.0214844 C15.098421,12.5872013 15.1058091,12.4045942 15.107816,11.608606 L15.1083656,11.2273922 L15.1083656,11.2273922 L15.1084289,11.003891 C15.1084289,10.9254204 15.1084086,10.8510185 15.1083656,10.7803708 L15.107816,10.3990188 C15.1065258,9.88701854 15.1030118,9.62816157 15.0955419,9.39319365 L15.0899568,9.23757167 C15.0868523,9.15901442 15.0832654,9.07745092 15.0791321,8.98439025 C15.0576172,8.49801637 14.9756012,8.23243713 14.9072418,8.05665588 C14.8271332,7.8398285 14.7001801,7.644516 14.5341644,7.48239137 C14.3740234,7.31637574 14.1767273,7.18942262 13.9599762,7.10939025 C13.7841949,7.04103088 13.5205231,6.95901488 13.0322418,6.9375 C12.5686215,6.91683331 12.390945,6.90982826 11.437798,6.90846606 Z M11.0087738,8.43164062 C12.4267731,8.43164062 13.5771332,9.58200074 13.5771332,11 C13.5771332,12.4179993 12.4267731,13.5683594 11.0087738,13.5683594 C9.59085082,13.5683594 8.44041443,12.4179993 8.44041443,11 C8.44041443,9.58200074 9.59085082,8.43164062 11.0087738,8.43164062 Z M11.0087738,9.33396912 C10.0888977,9.33396912 9.34274293,10.0800476 9.34274293,11 C9.34274293,11.9199524 10.0888977,12.6660309 11.0087738,12.6660309 C11.9287262,12.6660309 12.6748047,11.9199524 12.6748047,11 C12.6748047,10.0800476 11.9287262,9.33396912 11.0087738,9.33396912 Z M13.6786804,7.73049926 C14.0098724,7.73049926 14.2783508,7.99890137 14.2783508,8.33009338 C14.2783508,8.6612091 14.0098724,8.9296875 13.6786804,8.9296875 C13.3475647,8.9296875 13.0790863,8.6612091 13.0790863,8.33009338 C13.0790863,7.99890137 13.3475647,7.73049926 13.6786804,7.73049926 Z" id="Combined-Shape" fill="#202020" fill-rule="nonzero"></path>
        </g>
    </g>
</svg>