<svg width="24px" height="24px" viewBox="0 0 24 24" xmlns="http://www.w3.org/2000/svg" xmlns:xlink="http://www.w3.org/1999/xlink">
    <g id="@_ik" stroke="none" stroke-width="1" fill="none" fill-rule="evenodd">
        <path d="M14.0528239,12.8301271 C13.7528239,14.4901271 13.0028239,15.7501271 11.7328239,15.6201271 C10.7818239,15.5301271 10.1128239,13.7101271 10.4118239,12.0501271 C10.7128239,10.3901271 11.8718239,9.22912712 12.8128239,9.35012712 C14.0428239,9.51012712 14.3528239,11.1601271 14.0528239,12.8301271 L14.0528239,12.8301271 Z M14.3928239,7.70012712 L14.3928239,8.76012712 C14.1928239,8.45012712 12.3228239,5.72012712 9.46282392,8.70012712 C7.18282392,11.0701271 7.77282392,14.1601271 8.33282392,15.6001271 C8.60282392,16.2901271 9.06282392,16.9101271 9.71282392,17.2801271 C10.3128239,17.6201271 11.1528239,17.8401271 12.2018239,17.4501271 C12.5428239,17.3301271 12.8428239,17.1001271 13.1028239,16.8401271 C13.3628239,16.5591271 14.1728239,15.4791271 14.1728239,15.4701271 C14.4728239,17.4201271 15.8328239,17.7201271 16.9918239,17.6101271 C18.1528239,17.4901271 19.2628239,16.9501271 20.0428239,16.0801271 C21.8828239,13.9901271 22.1728239,10.4201271 20.9628239,7.74012712 C20.3628239,6.41012712 19.3828239,5.43012712 18.4328239,4.74012712 C16.8328239,3.57012712 14.8928239,2.99012712 12.8928239,3 C8.46282392,3.01012712 5.90282392,5.74012712 5.90282392,5.74012712 C1.71282392,10.0001271 2.11282392,16.9701271 6.75282392,20.2401271 C11.2418239,23.4101271 17.1728239,21.0401271 17.1728239,21.0401271 L17.1728239,18.9401271 C14.9728239,20.0591271 9.99182392,20.7901271 6.95182392,17.2401271 C3.92282392,13.6801271 6.16182392,6.28012712 11.1618239,5.08012712 C14.5828239,4.26012712 17.4918239,6.20012712 18.3328239,7.43012712 C19.5628239,9.22012712 19.7928239,11.4901271 19.2418239,13.5701271 C18.6528239,15.8301271 17.7928239,15.7201271 17.3328239,15.6901271 C16.4518239,15.6301271 16.4918239,14.5301271 16.4918239,14.5301271 L16.8128239,7.70012712 L14.3928239,7.70012712 Z" id="Fill-1" fill="#000000"></path>
    </g>
</svg>