<svg width="24px" height="24px" viewBox="0 0 24 24" xmlns="http://www.w3.org/2000/svg" xmlns:xlink="http://www.w3.org/1999/xlink">
    <g id="location_ic" stroke="none" stroke-width="1" fill="none" fill-rule="evenodd">
        <path d="M12.0191836,2.0108643 C16.8857142,1.76759899 20.9074829,5.64120443 20.9074829,10.4530412 C20.9074829,12.602701 20.105348,14.5598485 18.7901993,16.0518165 L18.5891155,16.2720888 L13.4444897,21.4167146 C12.9312244,21.9301075 12.1188918,21.962075 11.5682431,21.5128413 L11.4617686,21.4165786 L6.33333324,16.2870548 C4.81646249,14.6915446 3.91278902,12.5114085 4.00666657,10.1131772 C4.17646249,5.77100035 7.67918358,2.22773504 12.0191836,2.0108643 Z M12.4530611,4.17685069 C8.99183664,4.17685069 6.17687065,6.99181668 6.17687065,10.4530412 C6.17687065,11.9678871 6.71679486,13.4140373 7.70249682,14.5578272 L7.89251691,14.7686874 L12.4530611,19.3292316 L17.0272108,14.7564425 C18.1265305,13.5836534 18.7306121,12.0571228 18.7306121,10.4530412 C18.7306121,6.99181668 15.9142856,4.17685069 12.4530611,4.17685069 Z M12.4538645,7.25185069 C14.1796093,7.25185069 15.5787686,8.65100997 15.5787686,10.3769466 C15.5787686,12.1028832 14.1796093,13.5018507 12.4538645,13.5018507 C10.7279279,13.5018507 9.32876861,12.1028832 9.32876861,10.3769466 C9.32876861,8.65100997 10.7279279,7.25185069 12.4538645,7.25185069 Z" id="Shape" fill="#06C86A"></path>
    </g>
</svg>