<svg width="24px" height="24px" viewBox="0 0 24 24" xmlns="http://www.w3.org/2000/svg" xmlns:xlink="http://www.w3.org/1999/xlink">
    <g id="phone_ic" stroke="none" stroke-width="1" fill="none" fill-rule="evenodd">
        <path d="M17.9520195,18.6179944 C17.4464329,19.0311954 16.9253163,19.4586964 15.5684237,19.3471961 C15.5444689,19.3451961 15.4697627,19.3379961 15.3400418,19.3114961 C14.5717653,19.1590957 11.85595,18.3520938 9.18692758,14.3887845 C6.81480155,10.8653763 6.18781728,8.6408711 7.02136023,6.70886659 C7.60490121,5.35266342 8.52157515,4.85456225 8.62429623,4.80246213 L8.68966419,4.76456204 C8.82263317,4.68066184 8.97417721,4.63676174 9.12775131,4.63676174 C9.18073589,4.63676174 9.23473551,4.64186175 9.2877201,4.65316178 C9.48382397,4.69196187 9.64480779,4.79726212 9.75280702,4.9589625 L11.4616107,7.49436842 C11.6899925,7.83396922 11.5798617,8.30547032 11.2154658,8.54367088 L10.2119053,9.19887241 C9.90282851,9.40057288 9.76742346,9.78007377 9.88039634,10.1279746 C10.1492779,10.9615765 10.4991589,11.9423788 11.2434807,13.0469814 C11.9867874,14.151584 12.7685638,14.8500856 13.443356,15.418787 C13.72523,15.6565875 14.1332722,15.6811876 14.4425519,15.4789871 L15.4448945,14.8234856 C15.6265849,14.7038853 15.8435984,14.6618852 16.0552322,14.7038853 C16.2525541,14.7436854 16.4134365,14.8490856 16.5204207,15.006586 L18.2281078,17.5430919 C18.2997689,17.6504922 18.334077,17.7721925 18.334077,17.8989927 C18.334077,18.1485933 18.200093,18.415494 17.9520195,18.6179944 M19.6130153,16.6399898 L17.9042116,14.1004839 C17.5512855,13.5808827 17.0113909,13.2248818 16.3844066,13.1001815 C15.7386443,12.9712812 15.079382,13.0980815 14.5260889,13.4601824 C14.2459406,13.6432828 13.8713943,13.6084827 13.6364148,13.3715822 C13.2985112,13.0309814 12.9585775,12.6355804 12.6273731,12.1428793 C12.2956612,11.6505781 12.0580425,11.1884771 11.8707694,10.749976 C11.740338,10.4442753 11.8535139,10.0901745 12.1342713,9.90707406 C13.2616656,9.16857234 13.5803851,7.67946886 12.8443866,6.58916631 L11.138628,4.05576038 C10.787732,3.53115916 10.2469238,3.17415832 9.61679295,3.04835803 C8.99904545,2.92565774 8.36373793,3.038158 7.82597483,3.36645877 C7.42828592,3.57715926 6.24384695,4.32376101 5.49323198,6.06856509 C4.41049906,8.57637095 5.08011461,11.2489772 7.80212161,15.2929867 C9.08207494,17.1932911 10.5386436,18.6711946 12.1332563,19.6857969 C13.4422395,20.5182989 14.4990891,20.8138996 15.0078224,20.9150998 C15.2185427,20.9580999 15.3566883,20.9713999 15.4054098,20.9764999 L15.4219548,20.9774999 C15.6110549,20.9929 15.7916288,21 15.9628645,21 C16.8016856,21 17.432933,20.8271996 17.9198431,20.6000991 C18.4066516,20.3730985 18.7502394,20.0927979 19.0129293,19.8769974 C20.0500874,19.0291954 20.3033374,17.6678922 19.6130153,16.6399898" id="Fill-1" fill="#FFFFFF"></path>
    </g>
</svg>