<svg width="900" height="506" xmlns="http://www.w3.org/2000/svg">
 <!-- Created with Liveweave.com -->
             <g>
              <title>Layer 1</title>
              <a href="fff">
                <path id="svg_40" d="m244.7,22c1.5,44 1,44.5 0.8,44.5c0.2,0 25.2,-0.5 25.2,-0.5c0,0 0.5,-11 0.5,-11c0,0 100.5,0.5 100.5,0.5c0,0 0,8.5 0,8.5c0,0 23.5,-1 23.5,-1c0,0 269,-1 269,-1" opacity="0.5" fill-opacity="null" stroke-opacity="null" stroke-width="2.5" stroke="#5282c1" fill="none"/>
                <path id="svg_41" d="m662.6,61.5c0,0 0,-10.5 0,-10.5c0,0 102,0.5 102,0.5c0,0 0.5,10 0.5,10c0,0 23.5,0 23.5,0c0,0 -1,-44 -1,-44c0,0 -543.5,5.5 -543.6,5.5" fill-opacity="null" stroke-opacity="null" stroke-width="2.5" stroke="#5282c1" fill="none"/>
             </a>
             </g>
            
</svg>